<svg xmlns="http://www.w3.org/2000/svg" width="512" height="126" preserveAspectRatio="xMidYMid"><path d="M365.131428 49.0741817c-7.537902 0-12.917422 2.5747195-15.557879 7.4502521l-1.418835 2.640457v-8.8197837h-12.265525v53.6089459h12.900988V72.0604006c0-7.620074 4.141463-11.991619 11.356156-11.991619 6.880527 0 10.824778 4.2565043 10.824778 11.6738876v32.2113838h12.906466V69.4418561c0-12.7640348-7.006524-20.3676744-18.746149-20.3676744Zm-62.565683 0c-15.223713 0-24.651569 9.4990714-24.651569 24.7885225V81.38965c0 14.7032916 9.537418 23.835328 24.892607 23.835328 10.271487 0 17.469745-3.763472 22.000156-11.5040652l-7.998065-4.6016263c-3.347135 4.4646731-8.693787 7.231127-13.996613 7.231127-7.773462 0-12.413435-4.7988388-12.413435-12.8407285v-2.1309912h36.007726v-8.8909994c0-14.2431289-9.351162-23.4135127-23.829851-23.4135127h-.010956Zm12.101182 23.6381159h-24.311926v-1.2873597c0-8.8252618 4.333198-13.6953163 12.199788-13.6953163 7.576249 0 12.101181 4.7988388 12.101181 12.8407286l.010957 2.1419474ZM512 41.5198452V31.2647924h-44.624819v10.2550528h15.64553v52.1572426h-15.64553v10.2550532H512V93.6770878h-15.651007V41.5198452H512ZM173.638038 29.7856983c-19.929425 0-32.320947 12.4189128-32.320947 32.4195527v10.8138217c0 19.9951618 12.386044 32.4195523 32.320947 32.4195523 19.934902 0 32.320946-12.4243905 32.320946-32.4195523V62.205251c-.005478-20.0225524-12.407956-32.4195527-32.320946-32.4195527Zm18.987186 43.9729215c0 13.2789787-6.918874 20.8935745-18.987186 20.8935745-12.068313 0-18.981709-7.6145958-18.981709-20.8935745v-12.298394c0-13.2789787 6.924352-20.8935746 18.987187-20.8935746 12.062834 0 18.987186 7.6145959 18.987186 20.8935746l-.005478 12.298394Zm53.855462-24.6844381c-6.770964 0-12.63256 2.8048008-15.689354 7.4995552l-1.385966 2.1364694v-8.3650992h-12.271004v72.0537979h12.906466V96.3011104l1.380488 2.0488193c2.903407 4.3058073 8.573268 6.8750483 15.168932 6.8750483 11.126075 0 22.350757-7.2694734 22.350757-23.5175966v-9.1156026c0-11.7067563-6.918874-23.5175971-22.460319-23.5175971Zm9.553853 32.0032151c0 8.6390055-5.039877 14.0075695-13.147504 14.0075695-7.559815 0-12.83525-5.6753391-12.83525-13.7939226v-8.0638022c0-8.2171898 5.31926-14.0020914 12.944812-14.0020914 8.047368 0 13.048898 5.3630859 13.048898 14.0020914l-.010956 7.8501553Zm163.505642-49.8071263-26.037536 72.6837825h13.109157l4.985095-15.5797917h29.932484l.049303.1533876 4.930314 15.4264041h13.103678l-26.08136-72.6892606-13.991135.0054781Zm-4.744058 46.8544161 11.745103-36.7472726 11.624585 36.7472726h-23.369688ZM116.08484 51.5612512c2.857773-8.5784989 1.875407-17.9728731-2.695238-25.7745853-6.88092-11.9578314-20.6922777-18.10875509-34.1835092-15.2237136C73.2060618 3.79625563 64.5786473-.05323646 55.5351081.00055633 41.7355849-.03029264 29.4968898 8.85809568 25.2575029 21.9903242c-8.8580301 1.8170443-16.50247241 7.3652044-20.97574645 15.2237136-6.91714214 11.9382602-5.33897083 26.9762629 3.9059042 37.2183916-2.84654306 8.5705875-1.864499 17.9519027 2.69523825 25.7471946 6.8746649 11.981635 20.7032378 18.148581 34.2109001 15.256582 5.9945824 6.758312 14.6098921 10.606856 23.643594 10.562219 13.7995232.031026 26.0382184-8.857362 30.2776053-21.989591 8.8562947-1.81782 16.4987457-7.3659833 20.9702687-15.2237132 6.935606-11.9353571 5.358615-26.9854353-3.900427-37.2238696ZM68.737393 117.780853c-5.5232564.004789-10.8719896-1.934564-15.1086729-5.478135.1862563-.104084.5478126-.284863.7559815-.421816L79.474521 97.3967357c1.2817094-.728072 2.0696091-2.092228 2.0597756-3.5662604v-35.377741l10.6001748 6.1190673c.1165351.055194.1955595.1674919.2081688.2958189v29.2805862c0 13.0412563-10.5639997 23.6175223-23.6052472 23.6326463ZM18.0154196 96.1203322c-2.7658412-4.7798698-3.7643999-10.3795543-2.8212351-15.8208294.1862563.1150407.5149439.3122533.7450252.4437283l25.0952975 14.4896446c1.2721236.745048 2.8474276.745048 4.1195512 0l30.6172491-17.7053049v12.2381347c.0115922.1278934-.0445008.2525446-.1479094.3286876L50.2596723 104.731947c-11.2918031 6.501639-25.7155514 2.637172-32.2442527-8.6390054v.0273906Zm-6.5737518-54.7812651c2.7528698-4.7870787 7.1028554-8.45247 12.2874378-10.3536591v29.8229207c-.0075105 1.473417.77976 2.8364836 2.0597755 3.5662604l30.6227273 17.6833924-10.6385217 6.1409798c-.1053314.0709334-.2395419.0833221-.3560783.0328687L20.0587608 73.5887979c-11.28204873-6.526873-15.14760219-20.9571287-8.6390055-32.2497308h.0219125Zm87.1022116 20.2690681L67.9211522 43.9247428l10.5892185-6.1245455c.1056771-.0699573.2393807-.0822991.3560782-.0328687l25.3582481 14.6430322c7.928979 4.5813714 12.493779 13.334356 11.712327 22.4583358-.781452 9.1239797-6.768204 16.9732434-15.36076 20.1395759V65.1908299c.016877-1.4773001-.7670161-2.8480644-2.048819-3.5826947h.0164344Zm10.5563496-15.8865669c-.186256-.1150407-.514944-.3122532-.745025-.4437283L83.2599064 30.7881954c-1.2721236-.745048-2.8474275-.745048-4.1195511 0L48.5173955 48.4661097V36.2334532c-.0041224-.1277834.0528866-.2499455.1536201-.3286876l25.3582476-14.6375541c7.931923-4.5722335 17.7920691-4.1468022 25.3006953 1.0916378 7.5086265 5.23844 11.3120105 14.3454561 9.7593145 23.3681971l.010956-.0054781Zm-66.3620244 21.824856-10.605653-6.1190673c-.1104653-.0610894-.1856023-.1707488-.2026975-.2958188V31.8509519c-.0069532-9.1617792 5.288038-17.5000887 13.5830491-21.3899524 8.295011-3.88986371 18.0916218-2.62861219 25.1308779 3.2354412-.1862564.1040844-.5204221.2848626-.7559815.4218157L44.7979802 28.6024229c-1.2800156.7297768-2.0672861 2.0928434-2.0597756 3.5662604v35.377741Zm5.7575109-12.4189128 13.6405351-7.8775459 13.6350569 7.8775459v15.7441356L62.1307724 78.749193l-13.640535-7.8775459.0054781-15.7441356Z"/></svg>